<svg xmlns="http://www.w3.org/2000/svg" width="42" height="36" viewBox="0 0 42 36" fill="none"
                        class="mb-2">
                        <!-- SVG path'lar aynı şekilde bırakıldı -->
                        <path d="M9.6954 31.0757V34.5537H6.21747V31.0757" stroke="black" stroke-width="1.3"
                            stroke-linecap="round" stroke-linejoin="round" />
                        <path d="M35.7825 31.0757V34.5537H32.3046V31.0757" stroke="black" stroke-width="1.3"
                            stroke-linecap="round" stroke-linejoin="round" />
                        <path
                            d="M38.3337 1.48047C39.7992 1.48047 41 2.66516 41 4.11316V27.812C41 29.2613 39.7992 30.446 38.3337 30.446H3.66634C2.20083 30.446 1 29.2613 1 27.812V4.11316C1 2.66516 2.20083 1.48047 3.66634 1.48047H38.3337Z"
                            stroke="black" stroke-width="1.3" stroke-linecap="round" stroke-linejoin="round" />
                        <path
                            d="M35.4827 15.9632C35.4827 19.7712 32.3941 22.8598 28.5876 22.8598C24.7776 22.8598 21.6896 19.7712 21.6896 15.9632C21.6896 12.154 24.7776 9.06668 28.5876 9.06668C32.3941 9.06668 35.4827 12.154 35.4827 15.9632Z"
                            stroke="black" stroke-width="1.3" stroke-linecap="round" stroke-linejoin="round" />
                        <path d="M7.20695 11.1356H5.82764V12.5149H7.20695V11.1356Z" fill="black" />
                        <path d="M11.3448 11.1356H9.96545V12.5149H11.3448V11.1356Z" fill="black" />
                        <path d="M15.4828 11.1356H14.1035V12.5149H15.4828V11.1356Z" fill="black" />
                        <path d="M7.20695 15.2737H5.82764V16.653H7.20695V15.2737Z" fill="black" />
                        <path d="M11.3448 15.2737H9.96545V16.653H11.3448V15.2737Z" fill="black" />
                        <path d="M15.4828 15.2737H14.1035V16.653H15.4828V15.2737Z" fill="black" />
                        <path d="M7.20695 19.4116H5.82764V20.7909H7.20695V19.4116Z" fill="black" />
                        <path d="M11.3448 19.4116H9.96545V20.7909H11.3448V19.4116Z" fill="black" />
                        <path d="M15.4828 19.4116H14.1035V20.7909H15.4828V19.4116Z" fill="black" />
                        <path d="M33.4637 11.0878L28.5876 15.9632" stroke="black" stroke-width="1.3"
                            stroke-linecap="round" stroke-linejoin="round" />
                    </svg>